<svg id="visual" viewBox="0 0 900 100" width="900" height="100" xmlns="http://www.w3.org/2000/svg" xmlns:xlink="http://www.w3.org/1999/xlink" version="1.1"><rect x="0" y="0" width="900" height="100" fill="#d9d9d9"></rect><path d="M0 39L21.5 47.7C43 56.3 86 73.7 128.8 76.5C171.7 79.3 214.3 67.7 257.2 58.8C300 50 343 44 385.8 48.5C428.7 53 471.3 68 514.2 74C557 80 600 77 642.8 72.7C685.7 68.3 728.3 62.7 771.2 54.5C814 46.3 857 35.7 878.5 30.3L900 25L900 101L878.5 101C857 101 814 101 771.2 101C728.3 101 685.7 101 642.8 101C600 101 557 101 514.2 101C471.3 101 428.7 101 385.8 101C343 101 300 101 257.2 101C214.3 101 171.7 101 128.8 101C86 101 43 101 21.5 101L0 101Z" fill="#fff" stroke-linecap="round" stroke-linejoin="miter"></path></svg>