<svg id="visual" viewBox="0 0 900 100" width="900" height="100" xmlns="http://www.w3.org/2000/svg" xmlns:xlink="http://www.w3.org/1999/xlink" version="1.1"><rect x="0" y="0" width="900" height="100" fill="#fff"></rect><path d="M0 1L30 16.3C60 31.7 120 62.3 180 64.7C240 67 300 41 360 30.3C420 19.7 480 24.3 540 29.2C600 34 660 39 720 40.5C780 42 840 40 870 39L900 38L900 101L870 101C840 101 780 101 720 101C660 101 600 101 540 101C480 101 420 101 360 101C300 101 240 101 180 101C120 101 60 101 30 101L0 101Z" fill="#d9d9d9" stroke-linecap="round" stroke-linejoin="miter"></path></svg>