<svg id="visual" viewBox="0 0 900 100" width="900" height="100" xmlns="http://www.w3.org/2000/svg" xmlns:xlink="http://www.w3.org/1999/xlink" version="1.1"><rect x="0" y="0" width="900" height="100" fill="#fff"></rect><path d="M0 97L30 81.7C60 66.3 120 35.7 180 33.3C240 31 300 57 360 67.7C420 78.3 480 73.7 540 68.8C600 64 660 59 720 57.5C780 56 840 58 870 59L900 60L900 0L870 0C840 0 780 0 720 0C660 0 600 0 540 0C480 0 420 0 360 0C300 0 240 0 180 0C120 0 60 0 30 0L0 0Z" fill="#d9d9d9" stroke-linecap="round" stroke-linejoin="miter"></path></svg>